<svg width="16" height="17" viewBox="0 0 16 17" fill="none" xmlns="http://www.w3.org/2000/svg">
<g clip-path="url(#clip0_520054_1841)">
<path d="M15.9843 5.69879C15.9468 4.84865 15.8093 4.26419 15.6124 3.75774C15.4092 3.22016 15.0967 2.73887 14.6872 2.33876C14.2871 1.93243 13.8026 1.6167 13.2713 1.41671C12.7619 1.21977 12.1805 1.08229 11.3303 1.04481C10.4738 1.00415 10.2019 0.994751 8.02963 0.994751C5.85733 0.994751 5.58543 1.00415 4.73212 1.04164C3.88197 1.07912 3.29751 1.21672 2.79119 1.41353C2.25348 1.6167 1.77219 1.92926 1.37209 2.33876C0.965758 2.73887 0.650145 3.22334 0.450033 3.75469C0.253096 4.26419 0.115618 4.84548 0.0781347 5.69562C0.0374774 6.55211 0.0280762 6.82401 0.0280762 8.99631C0.0280762 11.1686 0.0374774 11.4405 0.0749603 12.2938C0.112443 13.144 0.250043 13.7284 0.446981 14.2349C0.650145 14.7725 0.965758 15.2538 1.37209 15.6539C1.77219 16.0602 2.25666 16.3759 2.78801 16.5759C3.29751 16.7729 3.8788 16.9103 4.72906 16.9478C5.58226 16.9854 5.85428 16.9947 8.02658 16.9947C10.1989 16.9947 10.4708 16.9854 11.3241 16.9478C12.1742 16.9103 12.7587 16.7729 13.265 16.5759C14.3403 16.1602 15.1904 15.31 15.6062 14.2349C15.803 13.7254 15.9406 13.144 15.9781 12.2938C16.0156 11.4405 16.025 11.1686 16.025 8.99631C16.025 6.82401 16.0218 6.55211 15.9843 5.69879ZM14.5435 12.2313C14.509 13.0127 14.3778 13.4347 14.2684 13.716C13.9995 14.413 13.4463 14.9662 12.7493 15.2351C12.468 15.3445 12.043 15.4757 11.2646 15.51C10.4207 15.5476 10.1676 15.5569 8.03281 15.5569C5.89799 15.5569 5.64172 15.5476 4.80085 15.51C4.01945 15.4757 3.5975 15.3445 3.31619 15.2351C2.96932 15.1069 2.65359 14.9037 2.39731 14.638C2.13163 14.3786 1.92847 14.066 1.80027 13.7192C1.69087 13.4379 1.55962 13.0127 1.52532 12.2345C1.48771 11.3906 1.47843 11.1374 1.47843 9.00254C1.47843 6.86772 1.48771 6.61145 1.52532 5.77071C1.55962 4.98931 1.69087 4.56735 1.80027 4.28604C1.92847 3.93905 2.13163 3.62344 2.40049 3.36704C2.65981 3.10136 2.97237 2.8982 3.31937 2.77012C3.60067 2.66073 4.0258 2.52947 4.80403 2.49504C5.64794 2.45756 5.90117 2.44816 8.03586 2.44816C10.1738 2.44816 10.4269 2.45756 11.2678 2.49504C12.0492 2.52947 12.4712 2.66073 12.7525 2.77012C13.0993 2.8982 13.4151 3.10136 13.6714 3.36704C13.937 3.62649 14.1402 3.93905 14.2684 4.28604C14.3778 4.56735 14.509 4.99236 14.5435 5.77071C14.581 6.61462 14.5904 6.86772 14.5904 9.00254C14.5904 11.1374 14.581 11.3874 14.5435 12.2313Z" fill="#F4F4FD"/>
<path d="M8.02967 4.88611C5.76055 4.88611 3.91949 6.72704 3.91949 8.99629C3.91949 11.2655 5.76055 13.1065 8.02967 13.1065C10.2989 13.1065 12.1398 11.2655 12.1398 8.99629C12.1398 6.72704 10.2989 4.88611 8.02967 4.88611ZM8.02967 11.6625C6.55758 11.6625 5.3635 10.4685 5.3635 8.99629C5.3635 7.52407 6.55758 6.33012 8.02967 6.33012C9.50188 6.33012 10.6958 7.52407 10.6958 8.99629C10.6958 10.4685 9.50188 11.6625 8.02967 11.6625Z" fill="#F4F4FD"/>
<path d="M13.262 4.72358C13.262 5.25347 12.8324 5.68312 12.3024 5.68312C11.7725 5.68312 11.3428 5.25347 11.3428 4.72358C11.3428 4.19357 11.7725 3.76404 12.3024 3.76404C12.8324 3.76404 13.262 4.19357 13.262 4.72358Z" fill="#F4F4FD"/>
</g>
<defs>
<clipPath id="clip0_520054_1841">
<rect width="16" height="16" fill="white" transform="translate(0 0.994751)"/>
</clipPath>
</defs>
</svg>
