<svg width="16" height="17" viewBox="0 0 16 17" fill="none" xmlns="http://www.w3.org/2000/svg">
<g clip-path="url(#clip0_520054_1857)">
<path d="M15.9961 16.9947V16.9941H16.0001V11.1261C16.0001 8.2554 15.3821 6.04407 12.0261 6.04407C10.4128 6.04407 9.33009 6.9294 8.88809 7.76873H8.84143V6.31207H5.65942V16.9941H8.97276V11.7047C8.97276 10.3121 9.23676 8.9654 10.9614 8.9654C12.6608 8.9654 12.6861 10.5547 12.6861 11.7941V16.9947H15.9961Z" fill="#F4F4FD"/>
<path d="M0.264038 6.31274H3.58137V16.9947H0.264038V6.31274Z" fill="#F4F4FD"/>
<path d="M1.92139 0.994751C0.860728 0.994751 6.10352e-05 1.85542 6.10352e-05 2.91608C6.10352e-05 3.97675 0.860728 4.85542 1.92139 4.85542C2.98206 4.85542 3.84273 3.97675 3.84273 2.91608C3.84206 1.85542 2.98139 0.994751 1.92139 0.994751V0.994751Z" fill="#F4F4FD"/>
</g>
<defs>
<clipPath id="clip0_520054_1857">
<rect width="16" height="16" fill="white" transform="translate(6.10352e-05 0.994751)"/>
</clipPath>
</defs>
</svg>
