<svg width="16" height="17" viewBox="0 0 16 17" fill="none" xmlns="http://www.w3.org/2000/svg">
<g clip-path="url(#clip0_520054_1847)">
<path d="M16 4.03375C15.405 4.29475 14.771 4.46775 14.11 4.55175C14.79 4.14575 15.309 3.50775 15.553 2.73875C14.919 3.11675 14.219 3.38375 13.473 3.53275C12.871 2.89175 12.013 2.49475 11.077 2.49475C9.261 2.49475 7.799 3.96875 7.799 5.77575C7.799 6.03575 7.821 6.28575 7.875 6.52375C5.148 6.39075 2.735 5.08375 1.114 3.09275C0.831 3.58375 0.665 4.14575 0.665 4.75075C0.665 5.88675 1.25 6.89375 2.122 7.47675C1.595 7.46675 1.078 7.31375 0.64 7.07275C0.64 7.08275 0.64 7.09575 0.64 7.10875C0.64 8.70275 1.777 10.0268 3.268 10.3318C3.001 10.4048 2.71 10.4398 2.408 10.4398C2.198 10.4398 1.986 10.4278 1.787 10.3838C2.212 11.6828 3.418 12.6378 4.852 12.6688C3.736 13.5418 2.319 14.0678 0.785 14.0678C0.516 14.0678 0.258 14.0558 0 14.0228C1.453 14.9598 3.175 15.4948 5.032 15.4948C11.068 15.4948 14.368 10.4948 14.368 6.16075C14.368 6.01575 14.363 5.87575 14.356 5.73675C15.007 5.27475 15.554 4.69775 16 4.03375Z" fill="#F4F4FD"/>
</g>
<defs>
<clipPath id="clip0_520054_1847">
<rect width="16" height="16" fill="white" transform="translate(0 0.994751)"/>
</clipPath>
</defs>
</svg>
